<?xml version="1.0" standalone="no"?>
<!DOCTYPE svg PUBLIC "-//W3C//DTD SVG 20010904//EN"
 "http://www.w3.org/TR/2001/REC-SVG-20010904/DTD/svg10.dtd">
<svg version="1.0" xmlns="http://www.w3.org/2000/svg"
 width="512.000000pt" height="512.000000pt" viewBox="0 0 512.000000 512.000000"
 preserveAspectRatio="xMidYMid meet">

<g transform="translate(0.000000,512.000000) scale(0.100000,-0.100000)"
fill="#000000" stroke="none">
<path d="M1555 3999 c-485 -71 -938 -440 -1114 -909 -65 -173 -84 -283 -84
-505 -1 -203 7 -263 60 -430 95 -299 309 -582 578 -760 467 -309 1107 -310
1577 -2 280 183 472 488 544 862 10 50 18 166 21 308 l5 227 -681 0 -681 0 2
-242 3 -243 403 -3 c221 -1 402 -6 402 -10 0 -23 -36 -124 -63 -177 -70 -141
-188 -254 -342 -330 -122 -61 -223 -86 -371 -92 -251 -11 -447 62 -637 237
-116 107 -194 234 -244 397 -24 79 -26 104 -27 253 -1 184 9 239 71 385 80
191 265 373 462 456 162 68 388 77 581 24 86 -23 251 -96 324 -142 l28 -18
174 180 c96 99 173 186 172 194 -4 21 -175 136 -294 198 -119 62 -276 116
-398 138 -97 16 -367 19 -471 4z"/>
<path d="M4020 2995 l0 -205 -205 0 -205 0 0 -199 0 -198 46 -7 c26 -3 118 -6
205 -6 l159 0 0 -200 0 -200 205 0 205 0 0 200 0 200 153 0 c83 0 176 3 205 6
l52 7 0 198 0 199 -205 0 -205 0 0 205 0 205 -205 0 -205 0 0 -205z"/>
</g>
</svg>
